<svg xmlns="http://www.w3.org/2000/svg" xmlns:xlink="http://www.w3.org/1999/xlink" width="512" zoomAndPan="magnify" viewBox="0 0 384 383.999986" height="512" preserveAspectRatio="xMidYMid meet" version="1.0"><defs><clipPath id="2cb06712de"><path d="M 45.015625 52 L 339 52 L 339 332 L 45.015625 332 Z M 45.015625 52 " clip-rule="nonzero"/></clipPath></defs><rect x="-38.4" width="460.8" fill="#ffffff" y="-38.399999" height="460.799983" fill-opacity="1"/><rect x="-38.4" width="460.8" fill="#6610f2" y="-38.399999" height="460.799983" fill-opacity="1"/><g clip-path="url(#2cb06712de)"><path fill="#ffd700" d="M 316.472656 52.824219 L 67.523438 52.824219 C 55.121094 52.824219 45.015625 62.929688 45.015625 75.332031 C 45.015625 143.3125 45.015625 188.785156 45.015625 250.792969 C 45.015625 263.195312 55.121094 273.300781 67.523438 273.300781 L 150.199219 273.300781 L 141.015625 298.5625 L 135.503906 298.5625 C 123.101562 298.5625 112.996094 308.667969 112.996094 321.070312 L 112.996094 327.957031 C 112.996094 329.796875 114.375 331.171875 116.210938 331.171875 L 267.785156 331.171875 C 269.625 331.171875 271 329.796875 271 327.957031 L 271 320.609375 C 271 308.207031 260.894531 298.101562 248.496094 298.101562 L 242.984375 298.101562 L 233.796875 272.839844 L 316.472656 272.839844 C 328.875 272.839844 338.980469 262.734375 338.980469 250.332031 C 338.980469 224.609375 338.980469 96.921875 338.980469 74.871094 C 338.980469 62.929688 328.875 52.824219 316.472656 52.824219 Z M 51.90625 75.332031 C 51.90625 66.605469 58.796875 59.714844 67.523438 59.714844 L 316.933594 59.714844 C 325.660156 59.714844 332.550781 66.605469 332.550781 75.332031 L 332.550781 89.570312 L 51.90625 89.570312 Z M 332.089844 96.460938 L 332.089844 234.257812 L 51.90625 234.257812 L 51.90625 96.460938 Z M 264.570312 320.609375 L 264.570312 324.285156 L 119.425781 324.285156 L 119.425781 320.609375 C 119.425781 311.882812 126.316406 304.992188 135.042969 304.992188 C 180.515625 304.992188 203.023438 304.992188 248.496094 304.992188 C 257.222656 304.992188 264.570312 311.882812 264.570312 320.609375 Z M 235.632812 298.101562 L 148.363281 298.101562 L 157.550781 272.839844 L 226.90625 272.839844 Z M 332.089844 250.792969 C 332.089844 259.519531 325.203125 266.410156 316.472656 266.410156 C 230.582031 266.410156 118.046875 266.410156 67.0625 266.410156 C 58.335938 266.410156 51.445312 259.519531 51.445312 250.792969 L 51.445312 240.6875 L 332.089844 240.6875 Z M 332.089844 250.792969 " fill-opacity="1" fill-rule="nonzero"/></g><path fill="#ffd700" d="M 127.234375 156.171875 C 142.390625 156.171875 154.792969 143.769531 154.792969 128.613281 C 154.792969 113.457031 142.390625 101.054688 127.234375 101.054688 C 112.078125 101.054688 99.675781 113.457031 99.675781 128.613281 C 99.675781 143.769531 112.078125 156.171875 127.234375 156.171875 Z M 127.234375 107.945312 C 138.71875 107.945312 147.902344 117.128906 147.902344 128.613281 C 147.902344 140.097656 138.71875 149.28125 127.234375 149.28125 C 115.75 149.28125 106.566406 140.097656 106.566406 128.613281 C 106.566406 117.128906 115.75 107.945312 127.234375 107.945312 Z M 127.234375 107.945312 " fill-opacity="1" fill-rule="nonzero"/><path fill="#ffd700" d="M 73.953125 224.609375 L 180.054688 224.609375 C 181.894531 224.609375 183.269531 223.234375 183.269531 221.394531 L 183.269531 199.808594 C 183.269531 176.382812 164.4375 157.550781 140.554688 157.550781 C 139.175781 157.550781 138.257812 158.46875 137.339844 159.386719 L 126.773438 180.515625 L 116.210938 159.386719 C 115.75 158.46875 114.375 157.550781 112.996094 157.550781 C 89.570312 157.550781 70.738281 176.382812 70.738281 199.808594 L 70.738281 221.394531 C 70.738281 223.234375 72.117188 224.609375 73.953125 224.609375 Z M 77.628906 199.808594 C 77.628906 180.976562 92.785156 165.359375 111.617188 164.441406 L 124.476562 189.242188 C 124.9375 190.164062 126.316406 191.082031 127.695312 191.082031 C 129.070312 191.082031 129.988281 190.164062 130.910156 189.242188 L 143.769531 164.441406 C 162.601562 165.359375 177.757812 180.976562 177.757812 200.265625 L 177.757812 218.640625 L 165.816406 218.640625 L 163.519531 199.808594 C 163.0625 197.972656 161.683594 196.59375 159.847656 197.050781 C 158.007812 197.511719 156.628906 198.890625 157.089844 200.726562 L 159.386719 218.640625 L 96.460938 218.640625 L 98.757812 200.726562 C 99.214844 198.890625 97.835938 197.050781 96 197.050781 C 94.164062 196.59375 92.324219 197.972656 92.324219 199.808594 L 90.03125 218.640625 L 77.628906 218.640625 Z M 77.628906 199.808594 " fill-opacity="1" fill-rule="nonzero"/><path fill="#ffd700" d="M 306.828125 71.199219 L 187.863281 71.199219 C 186.027344 71.199219 184.648438 72.578125 184.648438 74.414062 C 184.648438 76.25 186.027344 77.628906 187.863281 77.628906 L 306.828125 77.628906 C 308.664062 77.628906 310.042969 76.25 310.042969 74.414062 C 310.042969 73.035156 308.664062 71.199219 306.828125 71.199219 Z M 306.828125 71.199219 " fill-opacity="1" fill-rule="nonzero"/><path fill="#ffd700" d="M 74.414062 64.769531 C 68.902344 64.769531 64.765625 69.359375 64.765625 74.414062 C 64.765625 79.464844 69.359375 84.058594 74.414062 84.058594 C 79.925781 84.058594 84.058594 79.464844 84.058594 74.414062 C 84.058594 69.359375 79.925781 64.769531 74.414062 64.769531 Z M 74.414062 77.628906 C 72.574219 77.628906 71.195312 76.25 71.195312 74.871094 C 71.195312 73.035156 72.574219 71.65625 74.414062 71.65625 C 76.25 71.65625 77.628906 73.035156 77.628906 74.871094 C 77.628906 76.25 76.25 77.628906 74.414062 77.628906 Z M 74.414062 77.628906 " fill-opacity="1" fill-rule="nonzero"/><path fill="#ffd700" d="M 97.378906 64.769531 C 91.867188 64.769531 87.734375 69.359375 87.734375 74.414062 C 87.734375 79.464844 92.324219 84.058594 97.378906 84.058594 C 102.890625 84.058594 107.023438 79.464844 107.023438 74.414062 C 107.023438 69.359375 102.890625 64.769531 97.378906 64.769531 Z M 97.378906 77.628906 C 95.542969 77.628906 94.164062 76.25 94.164062 74.414062 C 94.164062 72.578125 95.542969 71.199219 97.378906 71.199219 C 99.214844 71.199219 100.59375 72.578125 100.59375 74.414062 C 100.59375 76.25 98.757812 77.628906 97.378906 77.628906 Z M 97.378906 77.628906 " fill-opacity="1" fill-rule="nonzero"/><path fill="#ffd700" d="M 120.34375 64.769531 C 114.832031 64.769531 110.699219 69.359375 110.699219 74.414062 C 110.699219 79.464844 115.292969 84.058594 120.34375 84.058594 C 125.398438 84.058594 129.988281 79.464844 129.988281 74.414062 C 129.988281 69.359375 125.855469 64.769531 120.34375 64.769531 Z M 120.34375 77.628906 C 118.507812 77.628906 117.128906 76.25 117.128906 74.414062 C 117.128906 72.578125 118.507812 71.199219 120.34375 71.199219 C 122.183594 71.199219 123.558594 72.578125 123.558594 74.414062 C 123.101562 76.25 121.722656 77.628906 120.34375 77.628906 Z M 120.34375 77.628906 " fill-opacity="1" fill-rule="nonzero"/><path fill="#ffd700" d="M 192 263.195312 C 197.511719 263.195312 201.644531 258.601562 201.644531 253.546875 C 201.644531 248.496094 197.050781 243.902344 192 243.902344 C 186.488281 243.902344 182.351562 248.496094 182.351562 253.546875 C 182.351562 258.601562 186.488281 263.195312 192 263.195312 Z M 192 250.332031 C 193.835938 250.332031 195.214844 251.710938 195.214844 253.546875 C 195.214844 255.386719 193.835938 256.765625 192 256.765625 C 190.160156 256.765625 188.78125 255.386719 188.78125 253.546875 C 188.78125 251.710938 190.160156 250.332031 192 250.332031 Z M 192 250.332031 " fill-opacity="1" fill-rule="nonzero"/><path fill="#ffd700" d="M 198.429688 160.304688 L 318.769531 160.304688 C 320.609375 160.304688 321.984375 158.929688 321.984375 157.089844 L 321.984375 119.425781 C 321.984375 117.589844 320.609375 116.210938 318.769531 116.210938 L 198.429688 116.210938 C 196.589844 116.210938 195.214844 117.589844 195.214844 119.425781 L 195.214844 157.089844 C 195.214844 158.929688 196.589844 160.304688 198.429688 160.304688 Z M 201.644531 122.640625 L 315.554688 122.640625 L 315.554688 153.875 L 201.644531 153.875 Z M 201.644531 122.640625 " fill-opacity="1" fill-rule="nonzero"/><path fill="#ffd700" d="M 198.429688 214.507812 L 318.769531 214.507812 C 320.609375 214.507812 321.984375 213.128906 321.984375 211.289062 L 321.984375 173.625 C 321.984375 171.789062 320.609375 170.410156 318.769531 170.410156 L 198.429688 170.410156 C 196.589844 170.410156 195.214844 171.789062 195.214844 173.625 L 195.214844 211.289062 C 195.214844 213.128906 196.589844 214.507812 198.429688 214.507812 Z M 201.644531 176.84375 L 315.554688 176.84375 L 315.554688 208.074219 L 201.644531 208.074219 Z M 201.644531 176.84375 " fill-opacity="1" fill-rule="nonzero"/><path fill="#ffd700" d="M 225.527344 127.695312 L 211.75 127.695312 C 209.910156 127.695312 208.535156 129.074219 208.535156 130.910156 L 208.535156 144.691406 C 208.535156 146.527344 209.910156 147.90625 211.75 147.90625 L 225.527344 147.90625 C 227.367188 147.90625 228.742188 146.527344 228.742188 144.691406 L 228.742188 130.910156 C 228.742188 129.53125 227.367188 127.695312 225.527344 127.695312 Z M 221.855469 141.472656 L 214.964844 141.472656 L 214.964844 134.585938 L 221.855469 134.585938 Z M 221.855469 141.472656 " fill-opacity="1" fill-rule="nonzero"/><path fill="#ffd700" d="M 256.761719 127.695312 L 242.984375 127.695312 C 241.144531 127.695312 239.769531 129.074219 239.769531 130.910156 L 239.769531 144.691406 C 239.769531 146.527344 241.144531 147.90625 242.984375 147.90625 L 256.761719 147.90625 C 258.601562 147.90625 259.976562 146.527344 259.976562 144.691406 L 259.976562 130.910156 C 259.976562 129.53125 258.601562 127.695312 256.761719 127.695312 Z M 253.089844 141.472656 L 246.199219 141.472656 L 246.199219 134.585938 L 253.089844 134.585938 Z M 253.089844 141.472656 " fill-opacity="1" fill-rule="nonzero"/><path fill="#ffd700" d="M 225.527344 182.355469 L 211.75 182.355469 C 209.910156 182.355469 208.535156 183.730469 208.535156 185.570312 L 208.535156 199.347656 C 208.535156 201.1875 209.910156 202.5625 211.75 202.5625 L 225.527344 202.5625 C 227.367188 202.5625 228.742188 201.1875 228.742188 199.347656 L 228.742188 185.570312 C 228.742188 183.730469 227.367188 182.355469 225.527344 182.355469 Z M 221.855469 195.675781 L 214.964844 195.675781 L 214.964844 188.785156 L 221.855469 188.785156 Z M 221.855469 195.675781 " fill-opacity="1" fill-rule="nonzero"/><path fill="#ffd700" d="M 256.761719 182.355469 L 242.984375 182.355469 C 241.144531 182.355469 239.769531 183.730469 239.769531 185.570312 L 239.769531 199.347656 C 239.769531 201.1875 241.144531 202.5625 242.984375 202.5625 L 256.761719 202.5625 C 258.601562 202.5625 259.976562 201.1875 259.976562 199.347656 L 259.976562 185.570312 C 259.976562 183.730469 258.601562 182.355469 256.761719 182.355469 Z M 253.089844 195.675781 L 246.199219 195.675781 L 246.199219 188.785156 L 253.089844 188.785156 Z M 253.089844 195.675781 " fill-opacity="1" fill-rule="nonzero"/></svg>